<svg width="48" height="48" viewBox="0 0 48 48" fill="none" xmlns="http://www.w3.org/2000/svg">
<path d="M25.2 4.4C24.8538 4.14036 24.4327 4 24 4C23.5673 4 23.1462 4.14036 22.8 4.4C21.9668 5.03836 21.1984 5.75715 20.506 6.546C19.46 7.724 18 9.71 18 12C18 13.5913 18.6321 15.1174 19.7574 16.2426C20.8826 17.3679 22.4087 18 24 18H12C10.4087 18 8.88258 18.6321 7.75736 19.7574C6.63214 20.8826 6 22.4087 6 24V28C6 30.472 8.822 31.884 10.8 30.4L12.134 29.4C12.4802 29.1404 12.9013 29 13.334 29C13.7667 29 14.1878 29.1404 14.534 29.4L15.066 29.8C16.1046 30.5789 17.3678 31 18.666 31C19.9642 31 21.2274 30.5789 22.266 29.8L22.8 29.4C23.1462 29.1404 23.5673 29 24 29C24.4327 29 24.8538 29.1404 25.2 29.4L25.734 29.8C26.7726 30.5789 28.0358 31 29.334 31C30.6322 31 31.8954 30.5789 32.934 29.8L33.466 29.4C33.8122 29.1404 34.2333 29 34.666 29C35.0987 29 35.5198 29.1404 35.866 29.4L37.2 30.4C39.178 31.884 42 30.472 42 28V24C42 22.4087 41.3679 20.8826 40.2426 19.7574C39.1174 18.6321 37.5913 18 36 18H24C25.5913 18 27.1174 17.3679 28.2426 16.2426C29.3679 15.1174 30 13.5913 30 12C30 9.71 28.54 7.724 27.494 6.546C26.802 5.766 26.034 5.026 25.2 4.4ZM8 34.83V40C8 41.0609 8.42143 42.0783 9.17157 42.8284C9.92172 43.5786 10.9391 44 12 44H36C37.0609 44 38.0783 43.5786 38.8284 42.8284C39.5786 42.0783 40 41.0609 40 40V34.83C39.5345 34.9981 39.0344 35.0468 38.5452 34.9717C38.0561 34.8966 37.5936 34.7 37.2 34.4L35.866 33.4C35.5198 33.1404 35.0987 33 34.666 33C34.2333 33 33.8122 33.1404 33.466 33.4L32.934 33.8C31.8954 34.5789 30.6322 35 29.334 35C28.0358 35 26.7726 34.5789 25.734 33.8L25.2 33.4C24.8538 33.1404 24.4327 33 24 33C23.5673 33 23.1462 33.1404 22.8 33.4L22.266 33.8C21.2274 34.5789 19.9642 35 18.666 35C17.3678 35 16.1046 34.5789 15.066 33.8L14.534 33.4C14.1878 33.1404 13.7667 33 13.334 33C12.9013 33 12.4802 33.1404 12.134 33.4L10.8 34.4C10.4064 34.7 9.94393 34.8966 9.45478 34.9717C8.96563 35.0468 8.46546 34.9981 8 34.83Z" fill="white"/>
</svg>
