<svg width="48" height="48" viewBox="0 0 48 48" fill="none" xmlns="http://www.w3.org/2000/svg">
<path d="M31 22C32.6569 22 34 20.6569 34 19C34 17.3431 32.6569 16 31 16C29.3431 16 28 17.3431 28 19C28 20.6569 29.3431 22 31 22Z" fill="white"/>
<path d="M17 22C18.6569 22 20 20.6569 20 19C20 17.3431 18.6569 16 17 16C15.3431 16 14 17.3431 14 19C14 20.6569 15.3431 22 17 22Z" fill="white"/>
<path d="M24 36C28.56 36 32.44 32.68 34 28H14C15.56 32.68 19.44 36 24 36Z" fill="white"/>
<path d="M23.98 4C12.94 4 4 12.96 4 24C4 35.04 12.94 44 23.98 44C35.04 44 44 35.04 44 24C44 12.96 35.04 4 23.98 4ZM24 40C15.16 40 8 32.84 8 24C8 15.16 15.16 8 24 8C32.84 8 40 15.16 40 24C40 32.84 32.84 40 24 40Z" fill="white"/>
</svg>
