<svg width="48" height="48" viewBox="0 0 48 48" fill="none" xmlns="http://www.w3.org/2000/svg">
<path d="M20 44V30H16V18C16 16.9 16.392 15.9587 17.176 15.176C17.96 14.3933 18.9013 14.0013 20 14H28C29.1 14 30.042 14.392 30.826 15.176C31.61 15.96 32.0013 16.9013 32 18V30H28V44H20ZM24 12C22.9 12 21.9587 11.6087 21.176 10.826C20.3933 10.0433 20.0013 9.10135 20 8.00001C19.9987 6.89868 20.3907 5.95735 21.176 5.17601C21.9613 4.39468 22.9027 4.00268 24 4.00001C25.0973 3.99735 26.0393 4.38935 26.826 5.17601C27.6127 5.96268 28.004 6.90401 28 8.00001C27.996 9.09601 27.6047 10.038 26.826 10.826C26.0473 11.614 25.1053 12.0053 24 12Z" fill="white"/>
</svg>
