<svg width="48" height="48" viewBox="0 0 48 48" fill="none" xmlns="http://www.w3.org/2000/svg">
<path d="M20 44V32H14L20.1 16.6C20.4333 15.8 20.95 15.1667 21.65 14.7C22.35 14.2333 23.1333 14 24 14C24.8667 14 25.65 14.2333 26.35 14.7C27.05 15.1667 27.5667 15.8 27.9 16.6L34 32H28V44H20ZM24 12C22.9 12 21.9587 11.6087 21.176 10.826C20.3933 10.0433 20.0013 9.10135 20 8.00001C19.9987 6.89868 20.3907 5.95735 21.176 5.17601C21.9613 4.39468 22.9027 4.00268 24 4.00001C25.0973 3.99735 26.0393 4.38935 26.826 5.17601C27.6127 5.96268 28.004 6.90401 28 8.00001C27.996 9.09601 27.6047 10.038 26.826 10.826C26.0473 11.614 25.1053 12.0053 24 12Z" fill="white"/>
</svg>
